<?xml version="1.0" standalone="no"?><!DOCTYPE svg PUBLIC "-//W3C//DTD SVG 1.1//EN" "http://www.w3.org/Graphics/SVG/1.1/DTD/svg11.dtd"><svg class="icon" width="14px" height="14.00px" viewBox="0 0 1024 1024" version="1.1" xmlns="http://www.w3.org/2000/svg"><path d="M699.328 64H324.672C216.256 64 128 149.76 128 255.104v513.792C128 874.24 216.256 960 324.672 960h374.656C807.744 960 896 874.24 896 768.896V255.104C896 149.76 807.744 64 699.328 64zM325.824 256H442.24C480.768 256 512 284.608 512 320c0 35.392-31.232 64-69.824 64H325.76C287.232 384 256 355.392 256 320c0-35.264 31.36-64 69.824-64z m309.76 512H324.48C286.656 768 256 739.392 256 704c0-35.392 30.656-64 68.48-64h311.04c37.824 0 68.48 28.608 68.48 64 0 35.392-30.72 64-68.48 64z m0-192H324.48C286.656 576 256 547.392 256 512c0-35.392 30.656-64 68.48-64h311.04c37.824 0 68.48 28.608 68.48 64 0 35.392-30.72 64-68.48 64z m13.568-192h-18.304C600.512 384 576 355.392 576 320c0-35.392 24.512-64 54.848-64h18.304c30.336 0 54.848 28.608 54.848 64 0 35.392-24.64 64-54.848 64z" fill="#8F8EFF" /></svg>