<?xml version="1.0" standalone="no"?><!DOCTYPE svg PUBLIC "-//W3C//DTD SVG 1.1//EN" "http://www.w3.org/Graphics/SVG/1.1/DTD/svg11.dtd"><svg class="icon" width="14px" height="14.00px" viewBox="0 0 1024 1024" version="1.1" xmlns="http://www.w3.org/2000/svg"><path d="M554.944 101.248l406.976 373.056a34.112 34.112 0 0 1-23.04 59.264h-40.32v298.624a85.312 85.312 0 0 1-85.312 85.376H215.936a85.312 85.312 0 0 1-85.312-85.376V533.568h-40.256a34.112 34.112 0 0 1-23.04-59.264L474.24 101.248a59.712 59.712 0 0 1 80.704 0zM312.448 591.36a42.688 42.688 0 0 0 0 60.352 280 280 0 0 0 395.968 0 42.688 42.688 0 0 0-60.352-60.352 194.624 194.624 0 0 1-275.2 0 42.688 42.688 0 0 0-60.416 0z" fill="#8F8EFF" /></svg>