<?xml version="1.0" standalone="no"?><!DOCTYPE svg PUBLIC "-//W3C//DTD SVG 1.1//EN" "http://www.w3.org/Graphics/SVG/1.1/DTD/svg11.dtd"><svg class="icon" width="14px" height="14.00px" viewBox="0 0 1024 1024" version="1.1" xmlns="http://www.w3.org/2000/svg"><path d="M865.92 536.128l-170.88-37.376a167.936 167.936 0 0 0 91.712-149.312V274.752a168.576 168.576 0 0 0-168.064-168.064c-77.44 0-142.976 53.312-162.176 124.992l-0.64 2.56c-0.832 3.648-1.664 7.04-2.304 10.688a61.568 61.568 0 0 0-0.896 6.144c-0.384 2.816-0.832 5.376-1.024 8.128-0.448 5.12-0.896 10.24-0.896 15.36v74.688c0 7.04 0.64 14.08 1.536 20.864 0.192 2.56 0.832 4.928 1.28 7.488 0.832 4.288 1.664 8.32 2.752 12.608a169.216 169.216 0 0 0 86.4 108.608l-15.36 3.392-155.328 33.92a112 112 0 0 0-88.704 109.632v132.928c0 41.152 33.472 74.624 74.624 74.624h522.688c41.152 0 74.688-33.472 74.688-74.624v-133.12a112.96 112.96 0 0 0-89.408-109.44zM415.168 460.992A232 232 0 0 1 386.56 349.44V274.752c0-37.312 8.96-72.32 24.768-103.68a136.768 136.768 0 0 0-70.016-19.392 138.88 138.88 0 0 0-138.624 138.688V352c0 53.568 30.72 100.288 75.712 123.328l-140.992 30.72C94.72 515.008 64 552.768 64 596.48v109.888c0 34.112 27.52 61.632 61.632 61.632h93.056v-122.432c0-82.816 58.624-155.328 139.072-172.16l57.408-12.416z" fill="#8F8EFF" /></svg>