<?xml version="1.0" standalone="no"?><!DOCTYPE svg PUBLIC "-//W3C//DTD SVG 1.1//EN" "http://www.w3.org/Graphics/SVG/1.1/DTD/svg11.dtd"><svg class="icon" width="14px" height="14.00px" viewBox="0 0 1024 1024" version="1.1" xmlns="http://www.w3.org/2000/svg"><path d="M844.16 63.872H185.856c-21.504 0-39.04 17.28-39.04 38.72v818.432c0 21.376 17.536 38.656 39.04 38.656h658.176c21.504 0 39.04-17.28 39.04-38.656V102.592a38.784 38.784 0 0 0-39.04-38.72z m-127.232 530.432H313.216a47.36 47.36 0 0 1-47.488-47.232 47.36 47.36 0 0 1 47.488-47.168h403.712c26.176 0 47.488 21.12 47.488 47.168a47.36 47.36 0 0 1-47.488 47.232z m0-200.384H313.216a47.36 47.36 0 0 1-47.488-47.232 47.36 47.36 0 0 1 47.488-47.168h403.712c26.176 0 47.488 21.12 47.488 47.168a47.36 47.36 0 0 1-47.488 47.232z" fill="#54436C" /></svg>