<?xml version="1.0" standalone="no"?><!DOCTYPE svg PUBLIC "-//W3C//DTD SVG 1.1//EN" "http://www.w3.org/Graphics/SVG/1.1/DTD/svg11.dtd"><svg class="icon" width="14px" height="14.00px" viewBox="0 0 1024 1024" version="1.1" xmlns="http://www.w3.org/2000/svg"><path d="M702.72 333.824c29.44-17.728 47.296-49.6 47.168-83.84 0-53.76-42.432-97.28-94.848-97.28-22.592 0.064-44.48 8.32-61.44 23.296A94.144 94.144 0 0 0 512.064 128c-34.816 0-65.152 19.328-81.664 48a92.992 92.992 0 0 0-61.44-23.232c-52.352 0-94.784 43.456-94.784 97.152 0 35.84 18.944 67.072 47.104 83.904-96.832 54.4-161.024 148.992-161.024 256.64C160.256 759.296 317.76 896 512 896c194.24 0 351.744-136.768 351.744-305.472 0-107.712-64.064-202.304-160.96-256.704z" fill="#54436C" /><path d="M350.72 512.896c0 32.192 19.008 58.24 42.496 58.24 23.488 0 42.56-26.048 42.56-58.24 0-20.8-8.128-40.064-21.312-50.496a32.896 32.896 0 0 0-42.496 0c-13.184 10.432-21.312 29.696-21.312 50.496zM627.84 588.16a32 32 0 0 1-25.536-12.608l-32.256-42.368a32 32 0 0 1 1.536-40.64l32.256-36.288a31.936 31.936 0 0 1 45.184-2.688 32 32 0 0 1 2.688 45.184l-14.784 16.64 16.32 21.376a32 32 0 0 1-25.408 51.392z" fill="#FFFFFF" /></svg>